<svg id="visual" viewBox="0 0 2000 550" width="2000" height="550" xmlns="http://www.w3.org/2000/svg" xmlns:xlink="http://www.w3.org/1999/xlink" version="1.1"><rect x="0" y="0" width="2000" height="550" fill="#404EED"></rect><defs><linearGradient id="grad1_0" x1="72.5%" y1="100%" x2="100%" y2="0%"><stop offset="-22.727272727272723%" stop-color="#404eed" stop-opacity="1"></stop><stop offset="122.72727272727272%" stop-color="#404eed" stop-opacity="1"></stop></linearGradient></defs><defs><linearGradient id="grad2_0" x1="0%" y1="100%" x2="27.5%" y2="0%"><stop offset="-22.727272727272723%" stop-color="#404eed" stop-opacity="1"></stop><stop offset="122.72727272727272%" stop-color="#404eed" stop-opacity="1"></stop></linearGradient></defs><g transform="translate(2000, 550)"><path d="M-495 0C-438.6 -43.8 -382.3 -87.6 -366.8 -151.9C-351.3 -216.3 -376.6 -301.2 -350 -350C-323.4 -398.8 -244.9 -411.5 -177.9 -429.6C-111 -447.7 -55.5 -471.4 0 -495L0 0Z" fill="#FFFFFF"></path></g><g transform="translate(0, 0)"><path d="M495 0C488.1 65.1 481.2 130.3 457.3 189.4C433.5 248.6 392.7 301.7 345.1 345.1C297.5 388.4 243.1 422 184.5 445.3C125.8 468.7 62.9 481.8 0 495L0 0Z" fill="#FFFFFF"></path></g></svg>