<!-- <?xml version="1.0" standalone="no"?>
<!DOCTYPE svg PUBLIC "-//W3C//DTD SVG 20010904//EN"
 "http://www.w3.org/TR/2001/REC-SVG-20010904/DTD/svg10.dtd"> -->
<svg version="1.0" xmlns="http://www.w3.org/2000/svg"
 width="1280.000000pt" height="720.000000pt" viewBox="0 0 1280.000000 720.000000"
 preserveAspectRatio="xMidYMid meet" >

<g transform="translate(0.000000,720.000000) scale(0.100000,-0.100000)"
fill="#ff0000" stroke="none">
<path d="M7460 4218 c-30 -5 -86 -7 -123 -4 -60 4 -68 3 -65 -12 2 -9 12 -18
23 -20 44 -7 77 -26 90 -53 13 -23 15 -117 15 -578 0 -388 -3 -557 -11 -575
-11 -24 -37 -39 -91 -50 -16 -4 -28 -12 -28 -19 0 -9 48 -12 200 -12 184 0
200 1 200 18 0 12 -8 17 -30 17 -19 0 -40 9 -55 25 -25 24 -25 26 -25 211 l0
186 28 -6 c15 -4 38 -15 52 -25 28 -20 248 -332 252 -358 2 -11 -8 -22 -24
-31 -16 -7 -28 -19 -28 -25 0 -9 42 -12 165 -12 142 0 165 2 165 15 0 9 -15
22 -34 28 -40 15 -55 33 -250 299 l-148 203 118 125 c111 116 187 175 228 175
9 0 16 7 16 15 0 13 -26 15 -170 15 -137 0 -170 -3 -170 -14 0 -9 16 -15 46
-19 58 -6 89 -34 80 -72 -7 -28 -167 -205 -221 -243 -17 -12 -48 -25 -68 -29
l-37 -6 0 422 0 421 -22 -1 c-13 -1 -48 -6 -78 -11z"/>
<path d="M4901 4174 c-76 -64 -29 -184 71 -184 28 0 47 8 70 29 28 25 33 36
33 76 0 40 -5 51 -33 76 -43 38 -98 40 -141 3z"/>
<path d="M2030 4089 c0 -12 13 -18 47 -22 94 -10 96 -26 91 -642 -3 -391 -5
-433 -21 -458 -9 -15 -28 -29 -42 -32 -14 -3 -36 -7 -50 -10 -14 -3 -25 -11
-25 -18 0 -9 99 -12 443 -12 l442 0 -8 100 c-4 55 -5 135 -2 178 5 70 4 77
-13 77 -15 0 -20 -13 -30 -77 -17 -108 -55 -181 -112 -213 -42 -23 -56 -25
-206 -28 -159 -4 -161 -3 -190 21 l-29 25 -3 479 c-2 263 0 497 3 520 9 61 32
84 88 90 34 4 47 10 47 22 0 14 -23 16 -215 16 -192 0 -215 -2 -215 -16z"/>
<path d="M5284 4046 c3 -32 6 -112 6 -177 0 -98 3 -119 15 -119 16 0 18 7 35
114 26 159 87 206 270 206 l70 0 0 -530 c0 -389 -3 -536 -12 -555 -13 -30 -55
-55 -90 -55 -36 0 -68 -11 -68 -24 0 -8 70 -11 250 -11 180 0 250 3 250 11 0
13 -32 24 -72 24 -16 0 -41 12 -60 29 l-33 29 -3 541 -3 541 70 0 c134 0 210
-31 246 -100 12 -23 45 -179 45 -211 0 -5 8 -9 18 -9 15 0 17 16 19 178 l1
177 -480 0 -480 0 6 -59z"/>
<path d="M3330 3785 c-82 -23 -151 -74 -199 -145 -94 -142 -115 -362 -50 -534
55 -149 184 -236 349 -236 83 0 145 18 203 60 73 52 135 152 106 170 -8 6 -21
-5 -39 -33 -57 -88 -126 -127 -224 -127 -68 1 -123 27 -174 85 -63 72 -85 138
-90 278 l-4 117 272 0 273 0 -6 63 c-19 199 -113 301 -287 312 -51 3 -93 0
-130 -10z m144 -29 c60 -25 101 -110 112 -236 l7 -70 -192 0 c-218 0 -201 -9
-176 98 19 79 44 128 87 169 55 53 102 64 162 39z"/>
<path d="M6665 3786 c-71 -18 -124 -48 -171 -98 -80 -83 -114 -188 -114 -355
0 -223 64 -354 208 -425 63 -31 72 -33 177 -33 98 0 116 3 166 26 153 72 219
200 219 426 0 127 -12 195 -46 270 -73 154 -258 234 -439 189z m186 -42 c81
-41 128 -167 136 -359 9 -205 -19 -338 -84 -415 -96 -112 -237 -89 -308 50
-65 129 -72 439 -14 595 23 63 85 130 131 144 40 12 100 6 139 -15z"/>
<path d="M8550 3785 c-82 -23 -151 -74 -199 -145 -94 -142 -115 -362 -50 -534
55 -149 184 -236 349 -236 83 0 145 18 203 60 73 52 135 152 106 170 -8 6 -21
-5 -39 -33 -57 -88 -126 -127 -224 -127 -68 1 -123 27 -174 85 -63 72 -85 138
-90 278 l-4 117 272 0 273 0 -6 63 c-19 199 -113 301 -287 312 -51 3 -93 0
-130 -10z m144 -29 c60 -25 101 -110 112 -236 l7 -70 -192 0 c-218 0 -201 -9
-176 98 19 79 44 128 87 169 55 53 102 64 162 39z"/>
<path d="M9595 3786 c-84 -26 -138 -70 -184 -146 l-21 -35 0 94 c0 92 0 93
-22 86 -13 -4 -78 -9 -145 -12 -89 -4 -123 -9 -123 -18 0 -7 17 -15 38 -19 22
-3 48 -16 63 -32 l24 -26 3 -349 3 -349 -25 -25 c-14 -14 -36 -25 -50 -25 -33
0 -56 -10 -56 -24 0 -8 57 -11 200 -11 184 0 200 1 200 18 0 12 -8 17 -30 17
-19 0 -40 9 -55 25 l-25 24 0 264 c0 294 6 334 63 409 87 114 244 125 297 22
12 -23 16 -87 18 -334 2 -167 1 -319 -3 -337 -8 -42 -41 -73 -77 -73 -20 0
-28 -5 -28 -17 0 -17 16 -18 195 -18 168 0 195 2 193 15 -2 8 -19 17 -41 21
-21 3 -48 16 -60 28 -21 21 -22 30 -27 349 -6 361 -10 385 -72 437 -58 49
-171 67 -253 41z"/>
<path d="M10375 3793 c-89 -20 -156 -69 -176 -130 -16 -48 -14 -132 4 -174 24
-59 66 -98 202 -189 72 -48 145 -104 162 -124 77 -86 60 -211 -32 -256 -83
-40 -195 -13 -243 59 -23 35 -55 134 -67 204 -4 28 -11 37 -25 37 -19 0 -20
-8 -20 -170 0 -161 1 -170 19 -170 12 0 21 8 23 21 5 37 31 45 66 20 102 -72
284 -68 390 9 57 41 85 99 85 175 0 118 -45 175 -242 306 -162 109 -188 132
-203 180 -33 112 60 199 183 171 28 -7 63 -21 78 -31 33 -24 79 -107 96 -170
8 -35 16 -47 33 -49 22 -3 22 -2 22 143 0 132 -2 146 -17 143 -9 -2 -21 -18
-25 -36 -12 -45 -31 -49 -79 -17 -62 43 -163 64 -234 48z"/>
<path d="M5005 3780 c-16 -4 -74 -8 -127 -9 -73 -1 -98 -4 -98 -14 0 -7 20
-18 45 -25 78 -21 79 -29 83 -372 2 -162 1 -314 -3 -337 -8 -56 -33 -84 -81
-92 -23 -4 -40 -12 -42 -21 -2 -13 27 -15 203 -15 176 0 205 2 203 15 -2 8
-19 17 -41 21 -21 3 -48 16 -60 28 -22 21 -22 26 -25 426 -2 311 -5 405 -15
404 -7 -1 -25 -5 -42 -9z"/>
<path d="M3870 3756 c0 -8 11 -17 24 -20 31 -8 66 -51 209 -262 l116 -170
-110 -145 c-131 -172 -164 -207 -206 -225 -18 -8 -33 -20 -33 -27 0 -9 40 -12
160 -12 121 -1 160 2 160 12 0 7 -19 17 -42 24 -24 6 -51 18 -60 26 -24 22
-22 70 3 113 26 43 150 203 154 198 1 -2 48 -70 103 -151 60 -88 98 -155 95
-163 -3 -8 -18 -18 -34 -21 -18 -3 -29 -12 -29 -22 0 -15 17 -17 160 -16 146
0 160 2 160 18 0 9 -7 17 -15 17 -8 0 -28 12 -44 28 -34 31 -291 404 -291 422
0 19 196 284 235 319 20 17 47 34 60 37 14 3 25 12 25 20 0 11 -27 14 -140 14
-112 0 -140 -3 -140 -14 0 -8 16 -16 39 -20 49 -7 65 -27 57 -67 -6 -30 -151
-249 -165 -249 -14 0 -192 271 -189 288 2 9 18 21 36 27 17 5 32 15 32 22 0
10 -37 13 -165 13 -134 0 -165 -3 -165 -14z"/>
</g>
</svg>
